<svg id="visual" viewBox="0 0 900 600" width="900" height="600" xmlns="http://www.w3.org/2000/svg" xmlns:xlink="http://www.w3.org/1999/xlink" version="1.1"><rect x="0" y="0" width="900" height="600" fill="#FFFFFF"></rect><g transform="translate(-40.11348281228612 121.40567098647449)"><path d="M444.4 -568.1C565.5 -523.7 646 -379.9 660.6 -237.6C675.3 -95.4 623.9 45.3 512.9 98.6C401.9 151.8 231.3 117.6 135.8 163.6C40.4 209.6 20.2 335.8 -3.6 340.8C-27.4 345.8 -54.9 229.5 -157.3 185.8C-259.7 142 -437 170.8 -522.5 119.7C-608 68.6 -601.7 -62.4 -509.5 -109.7C-417.3 -157 -239.2 -120.6 -140 -172.2C-40.8 -223.8 -20.4 -363.4 70.6 -460.6C161.6 -557.8 323.3 -612.6 444.4 -568.1" fill="#04bf62"></path></g></svg>