<svg id="visual" viewBox="0 0 1000 700" width="1000" height="700" xmlns="http://www.w3.org/2000/svg" xmlns:xlink="http://www.w3.org/1999/xlink" version="1.1"><rect x="0" y="0" width="1000" height="700" fill="#FFFFFF"></rect><g transform="translate(904.2530711214395 408.9361217958664)"><path d="M209.9 -168.6C340.7 -193.9 562.7 -224.4 632.7 -168C702.8 -111.6 621 31.8 524.9 122.1C428.9 212.3 318.5 249.3 228.6 343C138.7 436.6 69.4 586.8 -19.6 613.8C-108.5 640.7 -217.1 544.5 -313.5 452.9C-409.8 361.4 -494 274.7 -568.2 158.2C-642.3 41.8 -706.3 -104.2 -639.3 -176C-572.3 -247.8 -374.3 -245.2 -245.9 -220.7C-117.6 -196.2 -58.8 -149.7 -9.6 -136.4C39.6 -123.2 79.2 -143.3 209.9 -168.6" fill="#04bf62"></path></g></svg>