<svg id="visual" viewBox="0 0 900 600" width="900" height="600" xmlns="http://www.w3.org/2000/svg" xmlns:xlink="http://www.w3.org/1999/xlink" version="1.1"><rect x="0" y="0" width="900" height="600" fill="#FFFFFF"></rect><g transform="translate(88.11893799052478 263.3961341136999)"><path d="M541.8 -800C680.3 -645 755.8 -457.5 678.7 -311.1C601.7 -164.6 372.2 -59.1 318.8 103.1C265.4 265.2 388.1 484.1 364.3 512.2C340.5 540.4 170.3 377.7 52.7 305.1C-64.9 232.6 -129.7 250.2 -221 244C-312.3 237.9 -430.1 207.9 -578.6 104.5C-727.2 1 -906.7 -175.9 -883.8 -299.8C-861 -423.8 -635.9 -494.6 -454.9 -635.8C-273.9 -777 -137 -988.5 32.3 -1033C201.6 -1077.5 403.2 -955 541.8 -800" fill="#04bf62"></path></g></svg>