<svg id="visual" viewBox="0 0 1920 1080" width="1920" height="1080" xmlns="http://www.w3.org/2000/svg" xmlns:xlink="http://www.w3.org/1999/xlink" version="1.1"><rect width="1920" height="1080" fill="#04bf62"></rect><g><g transform="translate(425 682)"><path d="M0 -123.1L106.6 -61.5L106.6 61.5L0 123.1L-106.6 61.5L-106.6 -61.5Z" fill="none" stroke="#02a152" stroke-width="2"></path></g><g transform="translate(1053 468)"><path d="M0 -32L27.7 -16L27.7 16L0 32L-27.7 16L-27.7 -16Z" fill="none" stroke="#02a152" stroke-width="2"></path></g><g transform="translate(826 750)"><path d="M0 -90L77.9 -45L77.9 45L0 90L-77.9 45L-77.9 -45Z" stroke="#02a152" fill="none" stroke-width="2"></path></g><g transform="translate(1570 175)"><path d="M0 -51L44.2 -25.5L44.2 25.5L0 51L-44.2 25.5L-44.2 -25.5Z" stroke="#02a152" fill="none" stroke-width="2"></path></g><g transform="translate(1200 780)"><path d="M0 -60L52 -30L52 30L0 60L-52 30L-52 -30Z" stroke="#02a152" fill="none" stroke-width="2"></path></g><g transform="translate(1319 475)"><path d="M0 -69L59.8 -34.5L59.8 34.5L0 69L-59.8 34.5L-59.8 -34.5Z" stroke="#02a152" fill="none" stroke-width="2"></path></g><g transform="translate(144 909)"><path d="M0 -74L64.1 -37L64.1 37L0 74L-64.1 37L-64.1 -37Z" stroke="#02a152" fill="none" stroke-width="2"></path></g><g transform="translate(279 382)"><path d="M0 -119L103.1 -59.5L103.1 59.5L0 119L-103.1 59.5L-103.1 -59.5Z" stroke="#02a152" fill="none" stroke-width="2"></path></g><g transform="translate(662 300)"><path d="M0 -80L69.3 -40L69.3 40L0 80L-69.3 40L-69.3 -40Z" stroke="#02a152" fill="none" stroke-width="2"></path></g><g transform="translate(1132 185)"><path d="M0 -90L77.9 -45L77.9 45L0 90L-77.9 45L-77.9 -45Z" stroke="#02a152" fill="none" stroke-width="2"></path></g><g transform="translate(1757 681)"><path d="M0 -109L94.4 -54.5L94.4 54.5L0 109L-94.4 54.5L-94.4 -54.5Z" stroke="#02a152" fill="none" stroke-width="2"></path></g><g transform="translate(1470 840)"><path d="M0 -72L62.4 -36L62.4 36L0 72L-62.4 36L-62.4 -36Z" stroke="#02a152" fill="none" stroke-width="2"></path></g><g transform="translate(1760 416)"><path d="M0 -88L76.2 -44L76.2 44L0 88L-76.2 44L-76.2 -44Z" stroke="#02a152" fill="none" stroke-width="2"></path></g><g transform="translate(140 148)"><path d="M0 -64L55.4 -32L55.4 32L0 64L-55.4 32L-55.4 -32Z" stroke="#02a152" fill="none" stroke-width="2"></path></g><g transform="translate(154 635)"><path d="M0 -117L101.3 -58.5L101.3 58.5L0 117L-101.3 58.5L-101.3 -58.5Z" stroke="#02a152" fill="none" stroke-width="2"></path></g><g transform="translate(996 946)"><path d="M0 -37L32 -18.5L32 18.5L0 37L-32 18.5L-32 -18.5Z" stroke="#02a152" fill="none" stroke-width="2"></path></g><g transform="translate(485 953)"><path d="M0 -119L103.1 -59.5L103.1 59.5L0 119L-103.1 59.5L-103.1 -59.5Z" stroke="#02a152" fill="none" stroke-width="2"></path></g><g transform="translate(1795 928)"><path d="M0 -97L84 -48.5L84 48.5L0 97L-84 48.5L-84 -48.5Z" stroke="#02a152" fill="none" stroke-width="2"></path></g><g transform="translate(432 158)"><path d="M0 -115L99.6 -57.5L99.6 57.5L0 115L-99.6 57.5L-99.6 -57.5Z" stroke="#02a152" fill="none" stroke-width="2"></path></g><g transform="translate(871 132)"><path d="M0 -75L65 -37.5L65 37.5L0 75L-65 37.5L-65 -37.5Z" stroke="#02a152" fill="none" stroke-width="2"></path></g></g></svg>